<svg width="163" height="163" viewBox="0 0 163 163" fill="none" xmlns="http://www.w3.org/2000/svg">
<path d="M79.9074 153.762C124.058 153.762 146.12 125.258 146.12 90.0961C146.12 54.9343 124.058 26.4299 79.9074 26.4299C35.7566 26.4299 13.6943 54.9343 13.6943 90.0961C13.6943 125.258 35.7566 153.762 79.9074 153.762Z" fill="url(#paint0_radial_7394_287)"/>
<path d="M79.9074 153.762C124.058 153.762 146.12 125.258 146.12 90.0961C146.12 54.9343 124.058 26.4299 79.9074 26.4299C35.7566 26.4299 13.6943 54.9343 13.6943 90.0961C13.6943 125.258 35.7566 153.762 79.9074 153.762Z" fill="url(#paint1_radial_7394_287)"/>
<path d="M79.9074 153.762C124.058 153.762 146.12 125.258 146.12 90.0961C146.12 54.9343 124.058 26.4299 79.9074 26.4299C35.7566 26.4299 13.6943 54.9343 13.6943 90.0961C13.6943 125.258 35.7566 153.762 79.9074 153.762Z" fill="url(#paint2_radial_7394_287)"/>
<path d="M79.9074 153.762C124.058 153.762 146.12 125.258 146.12 90.0961C146.12 54.9343 124.058 26.4299 79.9074 26.4299C35.7566 26.4299 13.6943 54.9343 13.6943 90.0961C13.6943 125.258 35.7566 153.762 79.9074 153.762Z" fill="url(#paint3_radial_7394_287)"/>
<path d="M79.9074 153.762C124.058 153.762 146.12 125.258 146.12 90.0961C146.12 54.9343 124.058 26.4299 79.9074 26.4299C35.7566 26.4299 13.6943 54.9343 13.6943 90.0961C13.6943 125.258 35.7566 153.762 79.9074 153.762Z" fill="url(#paint4_radial_7394_287)"/>
<path d="M79.9074 153.762C124.058 153.762 146.12 125.258 146.12 90.0961C146.12 54.9343 124.058 26.4299 79.9074 26.4299C35.7566 26.4299 13.6943 54.9343 13.6943 90.0961C13.6943 125.258 35.7566 153.762 79.9074 153.762Z" fill="url(#paint5_radial_7394_287)"/>
<path d="M79.9074 153.762C124.058 153.762 146.12 125.258 146.12 90.0961C146.12 54.9343 124.058 26.4299 79.9074 26.4299C35.7566 26.4299 13.6943 54.9343 13.6943 90.0961C13.6943 125.258 35.7566 153.762 79.9074 153.762Z" fill="url(#paint6_radial_7394_287)"/>
<path d="M79.9074 153.762C124.058 153.762 146.12 125.258 146.12 90.0961C146.12 54.9343 124.058 26.4299 79.9074 26.4299C35.7566 26.4299 13.6943 54.9343 13.6943 90.0961C13.6943 125.258 35.7566 153.762 79.9074 153.762Z" fill="url(#paint7_radial_7394_287)"/>
<path d="M79.9074 153.762C124.058 153.762 146.12 125.258 146.12 90.0961C146.12 54.9343 124.058 26.4299 79.9074 26.4299C35.7566 26.4299 13.6943 54.9343 13.6943 90.0961C13.6943 125.258 35.7566 153.762 79.9074 153.762Z" fill="url(#paint8_radial_7394_287)" fill-opacity="0.3"/>
<path d="M79.9074 153.762C124.058 153.762 146.12 125.258 146.12 90.0961C146.12 54.9343 124.058 26.4299 79.9074 26.4299C35.7566 26.4299 13.6943 54.9343 13.6943 90.0961C13.6943 125.258 35.7566 153.762 79.9074 153.762Z" fill="url(#paint9_radial_7394_287)"/>
<path d="M79.9074 153.762C124.058 153.762 146.12 125.258 146.12 90.0961C146.12 54.9343 124.058 26.4299 79.9074 26.4299C35.7566 26.4299 13.6943 54.9343 13.6943 90.0961C13.6943 125.258 35.7566 153.762 79.9074 153.762Z" fill="url(#paint10_radial_7394_287)"/>
<path d="M79.9074 153.762C124.058 153.762 146.12 125.258 146.12 90.0961C146.12 54.9343 124.058 26.4299 79.9074 26.4299C35.7566 26.4299 13.6943 54.9343 13.6943 90.0961C13.6943 125.258 35.7566 153.762 79.9074 153.762Z" fill="url(#paint11_radial_7394_287)"/>
<path d="M79.9074 153.762C124.058 153.762 146.12 125.258 146.12 90.0961C146.12 54.9343 124.058 26.4299 79.9074 26.4299C35.7566 26.4299 13.6943 54.9343 13.6943 90.0961C13.6943 125.258 35.7566 153.762 79.9074 153.762Z" fill="url(#paint12_radial_7394_287)"/>
<path d="M79.9074 153.762C124.058 153.762 146.12 125.258 146.12 90.0961C146.12 54.9343 124.058 26.4299 79.9074 26.4299C35.7566 26.4299 13.6943 54.9343 13.6943 90.0961C13.6943 125.258 35.7566 153.762 79.9074 153.762Z" fill="url(#paint13_radial_7394_287)"/>
<rect x="56.3896" y="94.4309" width="47.0376" height="33.7461" rx="16.873" fill="url(#paint14_radial_7394_287)"/>
<rect x="56.3896" y="94.4309" width="47.0376" height="33.7461" rx="16.873" fill="url(#paint15_radial_7394_287)"/>
<rect x="56.3896" y="94.4309" width="47.0376" height="33.7461" rx="16.873" fill="url(#paint16_radial_7394_287)"/>
<rect x="56.3896" y="94.4309" width="47.0376" height="33.7461" rx="16.873" fill="url(#paint17_radial_7394_287)"/>
<rect x="56.3896" y="94.4309" width="47.0376" height="33.7461" rx="16.873" fill="url(#paint18_radial_7394_287)"/>
<path d="M129.323 31.7267L145.062 47.4664C149.035 51.4395 149.035 57.9595 145.062 61.9326L129.323 77.6723C122.854 84.1414 111.851 79.557 111.851 70.4392V39.0108C111.851 29.8929 122.905 25.3086 129.323 31.7267Z" fill="url(#paint19_linear_7394_287)"/>
<path d="M129.323 31.7267L145.062 47.4664C149.035 51.4395 149.035 57.9595 145.062 61.9326L129.323 77.6723C122.854 84.1414 111.851 79.557 111.851 70.4392V39.0108C111.851 29.8929 122.905 25.3086 129.323 31.7267Z" fill="url(#paint20_linear_7394_287)"/>
<path d="M129.323 31.7267L145.062 47.4664C149.035 51.4395 149.035 57.9595 145.062 61.9326L129.323 77.6723C122.854 84.1414 111.851 79.557 111.851 70.4392V39.0108C111.851 29.8929 122.905 25.3086 129.323 31.7267Z" fill="url(#paint21_linear_7394_287)"/>
<path d="M129.323 31.7267L145.062 47.4664C149.035 51.4395 149.035 57.9595 145.062 61.9326L129.323 77.6723C122.854 84.1414 111.851 79.557 111.851 70.4392V39.0108C111.851 29.8929 122.905 25.3086 129.323 31.7267Z" fill="url(#paint22_linear_7394_287)"/>
<path d="M129.323 31.7267L145.062 47.4664C149.035 51.4395 149.035 57.9595 145.062 61.9326L129.323 77.6723C122.854 84.1414 111.851 79.557 111.851 70.4392V39.0108C111.851 29.8929 122.905 25.3086 129.323 31.7267Z" fill="url(#paint23_radial_7394_287)"/>
<path d="M129.323 31.7267L145.062 47.4664C149.035 51.4395 149.035 57.9595 145.062 61.9326L129.323 77.6723C122.854 84.1414 111.851 79.557 111.851 70.4392V39.0108C111.851 29.8929 122.905 25.3086 129.323 31.7267Z" fill="url(#paint24_radial_7394_287)"/>
<path d="M129.323 31.7267L145.062 47.4664C149.035 51.4395 149.035 57.9595 145.062 61.9326L129.323 77.6723C122.854 84.1414 111.851 79.557 111.851 70.4392V39.0108C111.851 29.8929 122.905 25.3086 129.323 31.7267Z" fill="url(#paint25_linear_7394_287)"/>
<path d="M129.323 31.7267L145.062 47.4664C149.035 51.4395 149.035 57.9595 145.062 61.9326L129.323 77.6723C122.854 84.1414 111.851 79.557 111.851 70.4392V39.0108C111.851 29.8929 122.905 25.3086 129.323 31.7267Z" fill="url(#paint26_radial_7394_287)"/>
<path d="M27.0435 29.6544L11.5364 46.663C7.62198 50.9426 7.62198 57.9655 11.5364 62.2451L27.0435 79.1989C33.4169 86.167 44.2568 81.229 44.2568 71.4078V37.5003C44.2568 27.6792 33.4169 22.7412 27.0435 29.6544Z" fill="url(#paint27_linear_7394_287)"/>
<path d="M27.0435 29.6544L11.5364 46.663C7.62198 50.9426 7.62198 57.9655 11.5364 62.2451L27.0435 79.1989C33.4169 86.167 44.2568 81.229 44.2568 71.4078V37.5003C44.2568 27.6792 33.4169 22.7412 27.0435 29.6544Z" fill="url(#paint28_linear_7394_287)"/>
<path d="M27.0435 29.6544L11.5364 46.663C7.62198 50.9426 7.62198 57.9655 11.5364 62.2451L27.0435 79.1989C33.4169 86.167 44.2568 81.229 44.2568 71.4078V37.5003C44.2568 27.6792 33.4169 22.7412 27.0435 29.6544Z" fill="url(#paint29_linear_7394_287)"/>
<path d="M27.0435 29.6544L11.5364 46.663C7.62198 50.9426 7.62198 57.9655 11.5364 62.2451L27.0435 79.1989C33.4169 86.167 44.2568 81.229 44.2568 71.4078V37.5003C44.2568 27.6792 33.4169 22.7412 27.0435 29.6544Z" fill="url(#paint30_linear_7394_287)"/>
<path d="M27.0435 29.6544L11.5364 46.663C7.62198 50.9426 7.62198 57.9655 11.5364 62.2451L27.0435 79.1989C33.4169 86.167 44.2568 81.229 44.2568 71.4078V37.5003C44.2568 27.6792 33.4169 22.7412 27.0435 29.6544Z" fill="url(#paint31_radial_7394_287)"/>
<path d="M27.0435 29.6544L11.5364 46.663C7.62198 50.9426 7.62198 57.9655 11.5364 62.2451L27.0435 79.1989C33.4169 86.167 44.2568 81.229 44.2568 71.4078V37.5003C44.2568 27.6792 33.4169 22.7412 27.0435 29.6544Z" fill="url(#paint32_linear_7394_287)"/>
<path d="M27.0435 29.6544L11.5364 46.663C7.62198 50.9426 7.62198 57.9655 11.5364 62.2451L27.0435 79.1989C33.4169 86.167 44.2568 81.229 44.2568 71.4078V37.5003C44.2568 27.6792 33.4169 22.7412 27.0435 29.6544Z" fill="url(#paint33_radial_7394_287)"/>
<path d="M27.0435 29.6544L11.5364 46.663C7.62198 50.9426 7.62198 57.9655 11.5364 62.2451L27.0435 79.1989C33.4169 86.167 44.2568 81.229 44.2568 71.4078V37.5003C44.2568 27.6792 33.4169 22.7412 27.0435 29.6544Z" fill="url(#paint34_radial_7394_287)"/>
<path d="M27.0435 29.6544L11.5364 46.663C7.62198 50.9426 7.62198 57.9655 11.5364 62.2451L27.0435 79.1989C33.4169 86.167 44.2568 81.229 44.2568 71.4078V37.5003C44.2568 27.6792 33.4169 22.7412 27.0435 29.6544Z" fill="url(#paint35_radial_7394_287)"/>
<path d="M27.0435 29.6544L11.5364 46.663C7.62198 50.9426 7.62198 57.9655 11.5364 62.2451L27.0435 79.1989C33.4169 86.167 44.2568 81.229 44.2568 71.4078V37.5003C44.2568 27.6792 33.4169 22.7412 27.0435 29.6544Z" fill="url(#paint36_radial_7394_287)"/>
<path d="M27.0435 29.6544L11.5364 46.663C7.62198 50.9426 7.62198 57.9655 11.5364 62.2451L27.0435 79.1989C33.4169 86.167 44.2568 81.229 44.2568 71.4078V37.5003C44.2568 27.6792 33.4169 22.7412 27.0435 29.6544Z" fill="url(#paint37_radial_7394_287)"/>
<path d="M89.2202 116.358C92.0334 116.358 94.314 114.077 94.314 111.264C94.314 108.451 92.0334 106.17 89.2202 106.17C86.407 106.17 84.1265 108.451 84.1265 111.264C84.1265 114.077 86.407 116.358 89.2202 116.358Z" fill="url(#paint38_linear_7394_287)"/>
<path d="M70.5962 116.358C73.4094 116.358 75.6899 114.077 75.6899 111.264C75.6899 108.451 73.4094 106.17 70.5962 106.17C67.783 106.17 65.5024 108.451 65.5024 111.264C65.5024 114.077 67.783 116.358 70.5962 116.358Z" fill="url(#paint39_linear_7394_287)"/>
<rect x="97.7412" y="77.3674" width="7.64062" height="12.7344" rx="3.82031" fill="url(#paint40_radial_7394_287)"/>
<rect x="97.7412" y="77.3674" width="7.64062" height="12.7344" rx="3.82031" fill="url(#paint41_radial_7394_287)"/>
<rect x="97.7412" y="77.3674" width="7.64062" height="12.7344" rx="3.82031" fill="url(#paint42_radial_7394_287)"/>
<rect x="97.7412" y="77.3674" width="7.64062" height="12.7344" rx="3.82031" fill="url(#paint43_radial_7394_287)"/>
<rect x="97.7412" y="77.3674" width="7.64062" height="12.7344" rx="3.82031" fill="url(#paint44_radial_7394_287)"/>
<rect x="54.4443" y="77.3674" width="7.64062" height="12.7344" rx="3.82031" fill="url(#paint45_radial_7394_287)"/>
<rect x="54.4443" y="77.3674" width="7.64062" height="12.7344" rx="3.82031" fill="url(#paint46_radial_7394_287)"/>
<rect x="54.4443" y="77.3674" width="7.64062" height="12.7344" rx="3.82031" fill="url(#paint47_radial_7394_287)"/>
<rect x="54.4443" y="77.3674" width="7.64062" height="12.7344" rx="3.82031" fill="url(#paint48_radial_7394_287)"/>
<rect x="54.4443" y="77.3674" width="7.64062" height="12.7344" rx="3.82031" fill="url(#paint49_radial_7394_287)"/>
<defs>
<radialGradient id="paint0_radial_7394_287" cx="0" cy="0" r="1" gradientUnits="userSpaceOnUse" gradientTransform="translate(110.476 39.355) rotate(104.362) scale(123.236 158.398)">
<stop offset="0.163934" stop-color="#FFB1CE"/>
<stop offset="0.581798" stop-color="#FF8CA8"/>
<stop offset="1" stop-color="#FF4795"/>
</radialGradient>
<radialGradient id="paint1_radial_7394_287" cx="0" cy="0" r="1" gradientUnits="userSpaceOnUse" gradientTransform="translate(79.9074 73.7378) rotate(90) scale(83.4102 88.5923)">
<stop offset="0.895478" stop-color="#FF6CD7" stop-opacity="0"/>
<stop offset="0.965596" stop-color="#FF62D4"/>
</radialGradient>
<radialGradient id="paint2_radial_7394_287" cx="0" cy="0" r="1" gradientUnits="userSpaceOnUse" gradientTransform="translate(160.773 140.801) rotate(-143.803) scale(164.482 105.37)">
<stop offset="0.918493" stop-color="#F34F8C" stop-opacity="0"/>
<stop offset="1" stop-color="#D36177"/>
</radialGradient>
<radialGradient id="paint3_radial_7394_287" cx="0" cy="0" r="1" gradientUnits="userSpaceOnUse" gradientTransform="translate(119.998 50.0726) rotate(-125.146) scale(38.3768 19.6795)">
<stop offset="0.0874595" stop-color="#E2697D"/>
<stop offset="0.375654" stop-color="#F78296"/>
<stop offset="1" stop-color="#FFB9CB" stop-opacity="0"/>
</radialGradient>
<radialGradient id="paint4_radial_7394_287" cx="0" cy="0" r="1" gradientUnits="userSpaceOnUse" gradientTransform="translate(118.241 58.357) rotate(92.2648) scale(31.7639 12.9269)">
<stop offset="0.328125" stop-color="#FF6295"/>
<stop offset="1" stop-color="#FF96B9" stop-opacity="0"/>
</radialGradient>
<radialGradient id="paint5_radial_7394_287" cx="0" cy="0" r="1" gradientUnits="userSpaceOnUse" gradientTransform="translate(117.545 64.5163) rotate(90.6228) scale(23.3954 11.8706)">
<stop offset="0.507974" stop-color="#FF6295"/>
<stop offset="1" stop-color="#FF96B9" stop-opacity="0"/>
</radialGradient>
<radialGradient id="paint6_radial_7394_287" cx="0" cy="0" r="1" gradientUnits="userSpaceOnUse" gradientTransform="translate(-0.631837 74.3745) rotate(34.2673) scale(35.0557 60.6391)">
<stop stop-color="#C86C80"/>
<stop offset="1" stop-color="#C86C80" stop-opacity="0"/>
</radialGradient>
<radialGradient id="paint7_radial_7394_287" cx="0" cy="0" r="1" gradientUnits="userSpaceOnUse" gradientTransform="translate(79.9074 98.466) rotate(-90) scale(14.7462 34.5961)">
<stop stop-color="#FF857D"/>
<stop offset="1" stop-color="#FF857D" stop-opacity="0"/>
</radialGradient>
<radialGradient id="paint8_radial_7394_287" cx="0" cy="0" r="1" gradientUnits="userSpaceOnUse" gradientTransform="translate(134.353 98.8882) rotate(176.947) scale(23.9109 57.0505)">
<stop stop-color="#FFB5C8"/>
<stop offset="1" stop-color="#FFB5C8" stop-opacity="0"/>
</radialGradient>
<radialGradient id="paint9_radial_7394_287" cx="0" cy="0" r="1" gradientUnits="userSpaceOnUse" gradientTransform="translate(146.12 65.4605) rotate(124.608) scale(32.4912 29.9703)">
<stop stop-color="#FFB5C8"/>
<stop offset="1" stop-color="#FFB5C8" stop-opacity="0"/>
</radialGradient>
<radialGradient id="paint10_radial_7394_287" cx="0" cy="0" r="1" gradientUnits="userSpaceOnUse" gradientTransform="translate(99.4127 85.8463) rotate(85.2755) scale(7.61995 5.23632)">
<stop offset="0.298335" stop-color="#FF7092"/>
<stop offset="1" stop-color="#FF7092" stop-opacity="0"/>
</radialGradient>
<radialGradient id="paint11_radial_7394_287" cx="0" cy="0" r="1" gradientUnits="userSpaceOnUse" gradientTransform="translate(55.9822 85.4697) rotate(85.8715) scale(8.31076 5.71104)">
<stop offset="0.298335" stop-color="#FF5A8F"/>
<stop offset="1" stop-color="#FF7092" stop-opacity="0"/>
</radialGradient>
<radialGradient id="paint12_radial_7394_287" cx="0" cy="0" r="1" gradientUnits="userSpaceOnUse" gradientTransform="translate(71.5197 114.61) rotate(2.02732) scale(28.752 22.3989)">
<stop offset="0.366419" stop-color="#FF3077"/>
<stop offset="1" stop-color="#F6528A" stop-opacity="0"/>
</radialGradient>
<radialGradient id="paint13_radial_7394_287" cx="0" cy="0" r="1" gradientUnits="userSpaceOnUse" gradientTransform="translate(27.0201 70.3648) rotate(49.808) scale(19.3071 15.041)">
<stop offset="0.366419" stop-color="#FF3077" stop-opacity="0.6"/>
<stop offset="1" stop-color="#F6528A" stop-opacity="0"/>
</radialGradient>
<radialGradient id="paint14_radial_7394_287" cx="0" cy="0" r="1" gradientUnits="userSpaceOnUse" gradientTransform="translate(77.1149 112.575) rotate(-1.63662) scale(44.5177 28.2152)">
<stop offset="0.493638" stop-color="#FFA7E2"/>
<stop offset="0.625938" stop-color="#FFC5DC"/>
</radialGradient>
<radialGradient id="paint15_radial_7394_287" cx="0" cy="0" r="1" gradientUnits="userSpaceOnUse" gradientTransform="translate(83.3448 109.778) rotate(6.17018) scale(33.1216 24.9098)">
<stop offset="0.619792" stop-color="#FFA8E2" stop-opacity="0"/>
<stop offset="0.778217" stop-color="#F58ABA"/>
</radialGradient>
<radialGradient id="paint16_radial_7394_287" cx="0" cy="0" r="1" gradientUnits="userSpaceOnUse" gradientTransform="translate(79.9084 101.896) rotate(90) scale(25.3648 35.3551)">
<stop offset="0.822055" stop-color="#FFA8E2" stop-opacity="0"/>
<stop offset="1" stop-color="#FF92F3"/>
</radialGradient>
<radialGradient id="paint17_radial_7394_287" cx="0" cy="0" r="1" gradientUnits="userSpaceOnUse" gradientTransform="translate(86.5186 112.92) rotate(55.5447) scale(7.36325 5.90655)">
<stop stop-color="#FFA7E2" stop-opacity="0"/>
<stop offset="0.451875" stop-color="#FFC4E8" stop-opacity="0.9"/>
<stop offset="0.572917" stop-color="#FFC4E8" stop-opacity="0.9"/>
<stop offset="1" stop-color="#FFA7E2" stop-opacity="0"/>
</radialGradient>
<radialGradient id="paint18_radial_7394_287" cx="0" cy="0" r="1" gradientUnits="userSpaceOnUse" gradientTransform="translate(67.9495 112.477) rotate(49.4972) scale(8.39288 7.80177)">
<stop offset="0.166541" stop-color="#FFA7E2" stop-opacity="0"/>
<stop offset="0.378336" stop-color="#FFC4E8" stop-opacity="0.9"/>
<stop offset="0.500962" stop-color="#FFC4E8" stop-opacity="0.9"/>
<stop offset="0.942618" stop-color="#FFA7E2" stop-opacity="0"/>
</radialGradient>
<linearGradient id="paint19_linear_7394_287" x1="129.947" y1="45.0847" x2="120.982" y2="75.3289" gradientUnits="userSpaceOnUse">
<stop stop-color="#FFC5DE"/>
<stop offset="1" stop-color="#FFB5EA"/>
</linearGradient>
<linearGradient id="paint20_linear_7394_287" x1="136.422" y1="71.8269" x2="129.947" y2="65.6985" gradientUnits="userSpaceOnUse">
<stop stop-color="#FFA0D5"/>
<stop offset="1" stop-color="#FFADDB" stop-opacity="0"/>
</linearGradient>
<linearGradient id="paint21_linear_7394_287" x1="111.851" y1="63.5496" x2="121.937" y2="63.5496" gradientUnits="userSpaceOnUse">
<stop stop-color="#FFA0D5"/>
<stop offset="1" stop-color="#FFADDB" stop-opacity="0"/>
</linearGradient>
<linearGradient id="paint22_linear_7394_287" x1="101.88" y1="80.701" x2="136.581" y2="63.5496" gradientUnits="userSpaceOnUse">
<stop stop-color="#FFA0D5"/>
<stop offset="1" stop-color="#FFADDB" stop-opacity="0"/>
</linearGradient>
<radialGradient id="paint23_radial_7394_287" cx="0" cy="0" r="1" gradientUnits="userSpaceOnUse" gradientTransform="translate(107.929 19.9343) rotate(52.284) scale(30.1838 25.2686)">
<stop stop-color="#EC9099"/>
<stop offset="1" stop-color="#EC9099" stop-opacity="0"/>
</radialGradient>
<radialGradient id="paint24_radial_7394_287" cx="0" cy="0" r="1" gradientUnits="userSpaceOnUse" gradientTransform="translate(176.694 80.701) rotate(-149.503) scale(84.6094 63.7589)">
<stop offset="0.862877" stop-color="#EC9099" stop-opacity="0"/>
<stop offset="1" stop-color="#EC9099"/>
</radialGradient>
<linearGradient id="paint25_linear_7394_287" x1="144.222" y1="22.4812" x2="126.553" y2="41.4236" gradientUnits="userSpaceOnUse">
<stop offset="0.282154" stop-color="#EC9099"/>
<stop offset="1" stop-color="#EC9099" stop-opacity="0"/>
</linearGradient>
<radialGradient id="paint26_radial_7394_287" cx="0" cy="0" r="1" gradientUnits="userSpaceOnUse" gradientTransform="translate(141.448 56.5056) rotate(136.012) scale(25.4464 9.58188)">
<stop stop-color="#FFD7F2" stop-opacity="0.8"/>
<stop offset="1" stop-color="#FFB7F5" stop-opacity="0"/>
</radialGradient>
<linearGradient id="paint27_linear_7394_287" x1="26.4287" y1="44.06" x2="16.0167" y2="76.1566" gradientUnits="userSpaceOnUse">
<stop stop-color="#FFC5DE"/>
<stop offset="1" stop-color="#FFB5EA"/>
</linearGradient>
<linearGradient id="paint28_linear_7394_287" x1="32.1703" y1="84.6414" x2="17.8653" y2="62.2757" gradientUnits="userSpaceOnUse">
<stop offset="0.210448" stop-color="#FF8CCD"/>
<stop offset="1" stop-color="#FFADDB" stop-opacity="0"/>
</linearGradient>
<linearGradient id="paint29_linear_7394_287" x1="16.1952" y1="79.4188" x2="32.4775" y2="65.287" gradientUnits="userSpaceOnUse">
<stop stop-color="#E88BC9"/>
<stop offset="1" stop-color="#E88BC9" stop-opacity="0"/>
</linearGradient>
<linearGradient id="paint30_linear_7394_287" x1="12.5087" y1="33.3368" x2="46.2474" y2="64.6395" gradientUnits="userSpaceOnUse">
<stop stop-color="#EC9099"/>
<stop offset="1" stop-color="#EC9099" stop-opacity="0"/>
</linearGradient>
<radialGradient id="paint31_radial_7394_287" cx="0" cy="0" r="1" gradientUnits="userSpaceOnUse" gradientTransform="translate(32.4775 28.3343) rotate(92.0948) scale(26.1287 16.6273)">
<stop stop-color="#FFA4B7"/>
<stop offset="1" stop-color="#FFA4B7" stop-opacity="0"/>
</radialGradient>
<linearGradient id="paint32_linear_7394_287" x1="4.46191" y1="32.7914" x2="24.5186" y2="52.848" gradientUnits="userSpaceOnUse">
<stop offset="0.338985" stop-color="#FF7584"/>
<stop offset="1" stop-color="#FBB3C6" stop-opacity="0"/>
</linearGradient>
<radialGradient id="paint33_radial_7394_287" cx="0" cy="0" r="1" gradientUnits="userSpaceOnUse" gradientTransform="translate(48.9134 62.9829) rotate(-169.114) scale(45.2058 46.1385)">
<stop offset="0.776139" stop-color="#CC8C93" stop-opacity="0"/>
<stop offset="1" stop-color="#CC8C93"/>
</radialGradient>
<radialGradient id="paint34_radial_7394_287" cx="0" cy="0" r="1" gradientUnits="userSpaceOnUse" gradientTransform="translate(44.2568 52.8193) rotate(90) scale(26.1912 8.84538)">
<stop stop-color="#FFCDF0"/>
<stop offset="1" stop-color="#FFBFE5" stop-opacity="0"/>
</radialGradient>
<radialGradient id="paint35_radial_7394_287" cx="0" cy="0" r="1" gradientUnits="userSpaceOnUse" gradientTransform="translate(39.9886 48.6236) rotate(90) scale(29.4969 6.86913)">
<stop stop-color="#FFDAF1" stop-opacity="0.6"/>
<stop offset="1" stop-color="#F9AFC5" stop-opacity="0"/>
</radialGradient>
<radialGradient id="paint36_radial_7394_287" cx="0" cy="0" r="1" gradientUnits="userSpaceOnUse" gradientTransform="translate(39.7343 67.822) rotate(90.5256) scale(27.718 9.65886)">
<stop stop-color="#FFDAF1" stop-opacity="0.6"/>
<stop offset="1" stop-color="#F9AFC5" stop-opacity="0"/>
</radialGradient>
<radialGradient id="paint37_radial_7394_287" cx="0" cy="0" r="1" gradientUnits="userSpaceOnUse" gradientTransform="translate(35.1572 72.6534) rotate(138.108) scale(14.6884 14.7371)">
<stop offset="0.197917" stop-color="#FFC8F4" stop-opacity="0.6"/>
<stop offset="1" stop-color="#F7ACC0" stop-opacity="0"/>
</radialGradient>
<linearGradient id="paint38_linear_7394_287" x1="89.2202" y1="108.59" x2="89.2202" y2="115.514" gradientUnits="userSpaceOnUse">
<stop stop-color="#D6085D"/>
<stop offset="1" stop-color="#AB087F"/>
</linearGradient>
<linearGradient id="paint39_linear_7394_287" x1="70.5962" y1="108.59" x2="70.5962" y2="115.514" gradientUnits="userSpaceOnUse">
<stop stop-color="#D6085D"/>
<stop offset="1" stop-color="#AB087F"/>
</linearGradient>
<radialGradient id="paint40_radial_7394_287" cx="0" cy="0" r="1" gradientUnits="userSpaceOnUse" gradientTransform="translate(101.562 84.1594) rotate(90) scale(7.46155 4.26648)">
<stop offset="0.608929" stop-color="#413235"/>
<stop offset="1" stop-color="#36222E"/>
</radialGradient>
<radialGradient id="paint41_radial_7394_287" cx="0" cy="0" r="1" gradientUnits="userSpaceOnUse" gradientTransform="translate(103.55 81.7717) rotate(90.568) scale(12.138 4.8098)">
<stop offset="0.00739003" stop-color="#605456"/>
<stop offset="1" stop-color="#413234" stop-opacity="0"/>
</radialGradient>
<radialGradient id="paint42_radial_7394_287" cx="0" cy="0" r="1" gradientUnits="userSpaceOnUse" gradientTransform="translate(103.55 81.7717) rotate(90.568) scale(12.138 4.8098)">
<stop offset="0.00739003" stop-color="#706365"/>
<stop offset="1" stop-color="#413234" stop-opacity="0"/>
</radialGradient>
<radialGradient id="paint43_radial_7394_287" cx="0" cy="0" r="1" gradientUnits="userSpaceOnUse" gradientTransform="translate(101.955 89.1586) rotate(158.133) scale(4.54091 2.37821)">
<stop stop-color="#36222C"/>
<stop offset="1" stop-color="#36222C" stop-opacity="0"/>
</radialGradient>
<radialGradient id="paint44_radial_7394_287" cx="0" cy="0" r="1" gradientUnits="userSpaceOnUse" gradientTransform="translate(104.633 91.2727) rotate(-104.793) scale(16.2579 12.1374)">
<stop offset="0.765763" stop-color="#36222C" stop-opacity="0"/>
<stop offset="1" stop-color="#321E28"/>
</radialGradient>
<radialGradient id="paint45_radial_7394_287" cx="0" cy="0" r="1" gradientUnits="userSpaceOnUse" gradientTransform="translate(58.2646 84.1594) rotate(90) scale(7.46155 4.26648)">
<stop offset="0.608929" stop-color="#413235"/>
<stop offset="1" stop-color="#36222E"/>
</radialGradient>
<radialGradient id="paint46_radial_7394_287" cx="0" cy="0" r="1" gradientUnits="userSpaceOnUse" gradientTransform="translate(60.2528 81.7717) rotate(90.568) scale(12.138 4.8098)">
<stop offset="0.00739003" stop-color="#605456"/>
<stop offset="1" stop-color="#413234" stop-opacity="0"/>
</radialGradient>
<radialGradient id="paint47_radial_7394_287" cx="0" cy="0" r="1" gradientUnits="userSpaceOnUse" gradientTransform="translate(60.2528 81.7717) rotate(90.568) scale(12.138 4.8098)">
<stop offset="0.00739003" stop-color="#706365"/>
<stop offset="1" stop-color="#413234" stop-opacity="0"/>
</radialGradient>
<radialGradient id="paint48_radial_7394_287" cx="0" cy="0" r="1" gradientUnits="userSpaceOnUse" gradientTransform="translate(58.6585 89.1586) rotate(158.133) scale(4.54091 2.37821)">
<stop stop-color="#36222C"/>
<stop offset="1" stop-color="#36222C" stop-opacity="0"/>
</radialGradient>
<radialGradient id="paint49_radial_7394_287" cx="0" cy="0" r="1" gradientUnits="userSpaceOnUse" gradientTransform="translate(61.3358 91.2727) rotate(-104.793) scale(16.2579 12.1374)">
<stop offset="0.765763" stop-color="#36222C" stop-opacity="0"/>
<stop offset="1" stop-color="#321E28"/>
</radialGradient>
</defs>
</svg>
